<svg width="1000" height="500" xmlns="http://www.w3.org/2000/svg">
 <style type="text/css">.st0{fill:none;stroke:#000000;stroke-width:5;stroke-miterlimit:10;}</style>

 <g>
  <title>background</title>
  <rect fill="none" id="canvas_background" height="402" width="582" y="-1" x="-1"/>
 </g>
 <g>
  <title>Layer 1</title>
  <path id="svg_1" d="m652,275.4c-22.2,0 -43,0 -65.2,0c0,20.3 -0.3,39.4 0.1,58.4c0.2,9.5 6.3,14.6 15.7,14.2c9.5,-0.3 14.6,-5.5 14.4,-15.3c-0.1,-10.4 0,-20.7 0,-32.2c11.6,0 22.3,0 36.1,0c-1.4,17.9 -2.4,35.9 -4.4,53.8c-0.4,4.2 -3.5,8.6 -6.5,12c-16.5,18.5 -38.1,17.9 -59.4,13.1c-18.3,-4.1 -28.8,-17.9 -29.3,-36.3c-1.3,-43 -1.7,-86 -1.9,-128.9c-0.1,-14.1 0.4,-28.4 2,-42.4c2.5,-21.9 17.3,-35.2 39.4,-36.7c5.4,-0.3 10.9,-0.4 16.4,-0.1c25.1,1.1 42,17.1 42.6,42c0.5,32.1 0,64.3 0,98.4zm-35,-35.1c0,-20.5 0.2,-40 -0.1,-59.5c-0.1,-8.9 -6.9,-12.2 -14.6,-12.6c-7.9,-0.3 -14.7,3.9 -15,12.1c-0.8,19.8 -0.2,39.7 -0.2,60c10.3,0 19.1,0 29.9,0z"/>
  <path id="svg_2" d="m786,382.4c-12.1,0 -22.6,0 -35.3,0c0,-4.7 0,-9.2 0,-13.7c0,-59.5 0,-119.1 0,-178.6c0,-15.2 -4.6,-21.4 -15.7,-21.2c-10.3,0.2 -15,6.7 -15,20.9c-0.1,59.1 0,118.2 0,177.4c0,4.6 0,9.3 0,14.7c-11.7,0 -22.6,0 -35.7,0c0,-4.2 0,-8.6 0,-13c0,-57 0,-114 0,-171c0,-5.1 0.8,-10.1 0.9,-15.2c0.9,-43.4 32.5,-52.6 67.8,-45.9c20.1,3.9 32.4,19.1 32.6,40.2c0.7,68 0.4,136 0.4,205.4z"/>
  <path id="svg_3" d="m520.2,53.9c0,9.5 0.1,18.1 -0.1,26.8c-0.1,2.4 -0.9,6.4 -2.2,6.8c-16.4,5.5 -12.2,19.6 -12.9,31.6c-0.2,4.7 0,9.4 0,14.2c5.5,0.7 9.6,1.2 14.4,1.8c0,11.6 0,22.6 0,34.4c-4.6,0.6 -8.7,1 -14.4,1.7c0,70.9 0,141.6 0,212.9c-12,0 -22.5,0 -34.4,0c0,-71 0,-141.8 0,-212.8c-5.5,-0.7 -9.6,-1.1 -14.3,-1.7c0,-11.5 0,-22.6 0,-34.4c4.4,-0.4 8.6,-1 14.3,-1.5c0,-12.1 -0.4,-24.3 0.1,-36.3c1.3,-28.6 19.4,-44.9 49.5,-43.5z"/>
  <path id="svg_4" d="m924.5,181.4c-0.1,-27.9 -16.6,-45 -43.7,-46.1c-36.4,-1.5 -55.2,10.9 -56.1,41.9c-1.5,55.6 -1.5,111.4 0,166.9c0.8,29.5 22.5,45.5 51.9,42.3c4,-0.4 7.8,-1.4 12.6,-2.4c0,10.7 0,20.4 0,30.2c0,0.1 0,0.2 0,0.2c-8.7,3 -19.4,5.3 -32.3,6.8c-20,2.3 -35.1,17.9 -33.8,34.8c1.3,17 18.5,28.9 38.5,26.6c24.5,-2.9 40.5,-23 50.2,-46.2c1.5,-3.5 2.9,-7.3 4,-10.9c5.8,-17.6 8.9,-35.8 8.8,-48.4c0,-65.2 0,-130.5 -0.1,-195.7zm-49.9,170.9c-10.3,0.6 -15.9,-5.8 -15.9,-18.4c-0.1,-48.8 0,-97.7 -0.1,-146.6c0.1,-10.5 4.2,-17.4 15.2,-18.2c10.4,-0.7 15.4,5.6 15.4,18.5c0.1,24.3 0,48.4 0,72.7c0,24.7 -0.2,49.3 0.1,74c0.2,10.5 -3.5,17.3 -14.7,18z"/>
  <g id="svg_5">
   <path id="svg_6" d="m314.4,188.6c-25.8,-52.4 -123.6,-33.1 -166.7,-14.6c29.5,-10.3 58.5,-1 85.8,54.5c10.9,22.4 37.9,31.6 60.3,20.5c22.2,-10.9 31.5,-38.1 20.6,-60.4z"/>
   <path id="svg_7" d="m159.5,169c-4.3,1.2 -8.4,1.8 -12.6,2.3c-16.7,4.5 -38.8,2 -69.1,-11.6c-22.7,-10.3 -49.4,-0.2 -59.6,22.5c-10.3,22.8 -0.2,49.5 22.5,59.7c45.2,20.2 98.1,-33.1 126.1,-75.2c-2.3,1 -4.8,1.7 -7.3,2.3z"/>
  </g>
  <circle id="svg_8" r="171.3" cy="225.2" cx="244.1" class="st0"/>
 </g>
</svg>